<svg t="1712979619086" class="icon" viewBox="0 0 1024 1024" version="1.1" xmlns="http://www.w3.org/2000/svg" p-id="5922" width="16" height="16"><path d="M793.088 605.696c14.848 0 29.696 1.536 44.544 4.608V136.704C837.632 66.56 780.8 10.24 711.168 10.24H165.888C95.744 10.24 38.912 67.072 38.912 136.704v684.032C38.912 890.88 95.744 947.2 165.376 947.2h453.632c-47.616-65.536-54.272-152.064-17.92-224.256 36.864-71.68 111.104-117.248 192-117.248z m-242.176-145.92v46.08H472.576v34.816h78.336v45.568H472.576V650.24H401.92v-63.488H320.512v-46.08h80.896v-34.816H320.512v-46.08h65.024L299.52 306.688h75.776c33.792 70.656 55.296 117.76 64.512 140.288h1.536c1.024-3.072 2.56-7.68 4.096-12.8 2.56-7.68 13.312-31.232 32.256-69.632l27.648-58.368h71.68l-89.088 153.6h62.976z m0 0" p-id="5923" fill="#2c2c2c"></path><path d="M792.576 631.296c-104.96 0-189.952 84.992-189.952 189.952s84.992 189.952 189.952 189.952 189.952-84.992 189.952-189.952-84.992-189.952-189.952-189.952z m-18.432 283.648c-14.848 14.848-38.912 14.848-53.76 0l-74.24-74.24c-4.096-5.12-4.096-12.288 0.512-17.408 4.608-4.608 12.288-5.12 17.408-0.512l74.752 74.24c2.56 2.56 5.632 3.584 9.216 3.584s6.656-1.536 9.216-3.584l163.328-163.84c5.12-5.12 13.312-4.608 17.92 0 5.12 5.12 4.608 13.312 0 17.92l-164.352 163.84z m0 0" p-id="5924" fill="#2c2c2c"></path></svg>